/vscmnt/brussel_pixiu_data/_data_brussel/112/vsc11236/PredSimResults/SUBJ06opt3D/trackIG/worker_10.mot
version=1
nRows=9
nColumns=50
inDegrees=yes
endheader
                time	         pelvis_tilt	         pelvis_list	     pelvis_rotation	           pelvis_tx	           pelvis_ty	           pelvis_tz	       hip_flexion_r	     hip_adduction_r	      hip_rotation_r	        knee_angle_r	       ankle_angle_r	         mtp_angle_r	       hip_flexion_l	     hip_adduction_l	      hip_rotation_l	        knee_angle_l	       ankle_angle_l	         mtp_angle_l	    lumbar_extension	      lumbar_bending	     lumbar_rotation	 ercspn_r/activation	 intobl_r/activation	 extobl_r/activation	    abd_r/activation	    add_r/activation	hamstrings_r/activation	bifemsh_r/activation	glut_max_r/activation	iliopsoas_r/activation	rect_fem_r/activation	  vasti_r/activation	gastroc_r/activation	 soleus_r/activation	tib_ant_r/activation	 ercspn_l/activation	 intobl_l/activation	 extobl_l/activation	    abd_l/activation	    add_l/activation	hamstrings_l/activation	bifemsh_l/activation	glut_max_l/activation	iliopsoas_l/activation	rect_fem_l/activation	  vasti_l/activation	gastroc_l/activation	 soleus_l/activation	tib_ant_l/activation	
          1.57136456	         -7.46956363	          1.80897714	         -6.98016695	          2.35704683	          0.91756248	          0.00957800	        -12.52028353	         -1.60688229	         -2.57168035	        -10.84067768	          5.52689398	         38.73442326	         35.18795039	         -0.83787540	         -9.19474774	         -7.86156695	          2.01181850	          0.27099925	         -7.50644308	         -1.55685872	          9.72902558	          0.22512851	          0.00999999	          0.00999999	          0.05541773	          0.00999999	          0.02425189	          0.27340255	          0.01903504	          0.80978193	          0.00999999	          0.00999999	          0.25382337	          0.37561816	          0.02559270	          0.19920334	          0.13105689	          0.00999999	          0.00999999	          0.44319787	          0.18753695	          0.19834447	          0.07633776	          0.14896953	          0.00999999	          0.00999999	          0.01889332	          0.01379675	          0.63279611	
          1.58184032	         -7.46556403	          1.87372437	         -7.03361521	          2.37602993	          0.91563414	          0.00922470	        -12.73414712	         -1.87703726	         -2.93926099	        -12.41106415	          4.14717055	         40.99012907	         35.27668072	         -0.69674290	         -8.92224181	        -10.08978355	          1.64288738	          0.22895476	         -7.19684117	         -1.94437380	         10.13979576	          0.23457250	          0.00999999	          0.00999999	          0.04718024	          0.02049844	          0.04791841	          0.24953403	          0.01620560	          0.77055799	          0.00999999	          0.00999999	          0.21609418	          0.32258031	          0.02178851	          0.16959306	          0.11157613	          0.00999999	          0.05526369	          0.37731939	          0.17057009	          0.16886186	          0.18325358	          0.12682618	          0.00999999	          0.00999999	          0.01608495	          0.01174595	          0.72164320	
          1.59231608	         -7.44053938	          1.97386819	         -7.05124909	          2.39522432	          0.91393571	          0.00874654	        -12.71654980	         -2.20979327	         -3.32706778	        -14.42488716	          2.62282728	         43.18339276	         35.21026237	         -0.53530996	         -8.65749779	        -12.09415547	          1.21352724	          0.21034825	         -6.88155373	         -2.36019360	         10.48980768	          0.23652087	          0.00999999	          0.00999999	          0.04016721	          0.01745148	          0.04079565	          0.22488422	          0.01379675	          0.74167294	          0.00999999	          0.00999999	          0.18397318	          0.27463084	          0.01854979	          0.17677583	          0.09499107	          0.00999999	          0.13266649	          0.37983300	          0.14521596	          0.14376164	          0.26115988	          0.10797429	          0.00999999	          0.00999999	          0.01369402	          0.00999999	          0.80680155	
          1.60279185	         -7.39588996	          2.07617414	         -7.03155396	          2.41437018	          0.91257740	          0.00811942	        -12.39851365	         -2.57617467	         -3.72503767	        -16.96982029	          0.93760979	         45.16702086	         35.11991256	         -0.35750375	         -8.47787061	        -14.06086535	          0.71650195	          0.17387771	         -6.59524277	         -2.76518551	         10.77754330	          0.27849220	          0.00999999	          0.00999999	          0.03419661	          0.01485743	          0.03473164	          0.21999788	          0.01174595	          0.63142808	          0.00999999	          0.00999999	          0.15662677	          0.23380876	          0.01579249	          0.19312676	          0.08087126	          0.00999999	          0.20179531	          0.41331131	          0.12922683	          0.12239241	          0.34154720	          0.09192462	          0.00999999	          0.04316194	          0.01165850	          0.00999999	          0.85052636	
          1.61326761	         -7.33386635	          2.18514222	         -6.98001474	          2.43329966	          0.91167810	          0.00736633	        -11.74116542	         -2.98694785	         -4.12835931	        -20.07797152	         -0.88533600	         46.63973780	         35.05921903	         -0.16501233	         -8.34526930	        -16.14074691	          0.55328577	          0.11817312	         -6.34972474	         -3.16598146	         11.00179595	          0.31708201	          0.00999999	          0.00999999	          0.02911351	          0.05744434	          0.05312695	          0.19298188	          0.00999999	          0.53757041	          0.00999999	          0.00999999	          0.13334522	          0.19905461	          0.01344504	          0.19048600	          0.06885028	          0.00999999	          0.25035427	          0.40615138	          0.11287455	          0.10419957	          0.36008038	          0.07826062	          0.00999999	          0.14044835	          0.00999999	          0.00999999	          0.88616748	
          1.62374337	         -7.25981203	          2.30207022	         -6.89774614	          2.45190035	          0.91139954	          0.00651011	        -10.72121497	         -3.44923682	         -4.54677058	        -23.76165314	         -2.77473745	         47.14196514	         34.96895287	          0.05518552	         -8.23089845	        -18.22305832	          0.84001061	          0.07244772	         -6.14858410	         -3.56364994	         11.16019606	          0.33056294	          0.00999999	          0.00999999	          0.02478598	          0.13080373	          0.04526375	          0.16486331	          0.00999999	          0.45766406	          0.00999999	          0.00999999	          0.11352432	          0.16946643	          0.01144652	          0.18396253	          0.05861613	          0.00999999	          0.29477656	          0.39942568	          0.10368909	          0.08871099	          0.30655678	          0.06662769	          0.00999999	          0.25278317	          0.00999999	          0.00999999	          0.81235220	
          1.63421914	         -7.18138242	          2.41738848	         -6.78577021	          2.47010323	          0.91187641	          0.00558863	         -9.34352905	         -3.95625997	         -4.98140465	        -27.91371662	         -4.93370623	         46.69593077	         34.73093583	          0.31080444	         -8.11055219	        -20.08676226	          1.63690514	          0.08352577	         -5.99165390	         -3.94870968	         11.25285519	          0.33932388	          0.00999999	          0.00999999	          0.02110170	          0.20589275	          0.04255949	          0.15277188	          0.00999999	          0.38963528	          0.00999999	          0.00999999	          0.09664967	          0.14427635	          0.00999999	          0.15661770	          0.04990322	          0.00999999	          0.32252763	          0.36477437	          0.09577725	          0.07552467	          0.26098911	          0.05672392	          0.00999999	          0.35427581	          0.00999999	          0.00999999	          0.69160133	
          1.64469490	         -7.10598575	          2.51680582	         -6.64318538	          2.48782161	          0.91320059	          0.00463502	         -7.63173996	         -4.49418834	         -5.43000112	        -32.40291110	         -7.37955603	         45.07458715	         34.25071452	          0.59928216	         -7.97210257	        -21.51665467	          2.77056693	          0.25511972	         -5.88450413	         -4.30629940	         11.28092476	          0.32660338	          0.00999999	          0.00999999	          0.01796507	          0.28428783	          0.03623330	          0.13006333	          0.00999999	          0.33171853	          0.00999999	          0.00999999	          0.08228332	          0.12283061	          0.06887003	          0.13333750	          0.04248543	          0.00999999	          0.33894827	          0.32269183	          0.09236225	          0.06429842	          0.22219477	          0.04829227	          0.00999999	          0.39412258	          0.00999999	          0.00999999	          0.58879929	
          1.65517067	         -7.03839180	          2.58525229	         -6.47119473	          2.50497827	          0.91531650	          0.00368308	         -5.64707628	         -5.04067711	         -5.86190740	        -37.12092753	         -9.67702757	         41.73099692	         33.51746632	          0.90342168	         -7.80186018	        -22.43306681	          3.95733644	          0.59625076	         -5.83450281	         -4.62122631	         11.24688933	          0.32779123	          0.03417264	          0.00999999	          0.01529468	          0.24273653	          0.03084746	          0.11073026	          0.00999999	          0.28241073	          0.00999999	          0.00999999	          0.07005244	          0.10457264	          0.26692702	          0.11351775	          0.03617025	          0.00999999	          0.34057324	          0.27472579	          0.09587642	          0.05474088	          0.18916697	          0.04111394	          0.00999999	          0.40204098	          0.00999999	          0.00999999	          0.50127811	
